<?xml version="1.0" standalone="no"?>
<!DOCTYPE svg PUBLIC "-//W3C//DTD SVG 20010904//EN"
 "http://www.w3.org/TR/2001/REC-SVG-20010904/DTD/svg10.dtd">
<svg version="1.0" xmlns="http://www.w3.org/2000/svg"
 width="500.000000pt" height="500.000000pt" viewBox="0 0 500.000000 500.000000"
 preserveAspectRatio="xMidYMid meet">

<g transform="translate(0.000000,500.000000) scale(0.100000,-0.100000)"
fill="#000000" stroke="none">
<path d="M1677 3364 c-187 -40 -305 -143 -352 -306 -27 -94 -26 -261 2 -353
70 -225 263 -325 625 -325 l108 0 0 90 0 90 -122 0 c-259 0 -359 43 -422 180
-30 66 -29 215 2 286 48 107 141 165 280 172 l82 5 0 -112 0 -111 90 0 90 0 0
200 0 200 -157 -1 c-98 0 -184 -6 -226 -15z"/>
<path d="M2804 3120 c-54 -143 -101 -260 -104 -260 -3 0 -32 75 -65 166 -33
92 -65 168 -71 171 -6 2 -49 3 -97 1 l-86 -3 156 -405 c85 -223 157 -407 159
-410 9 -8 18 15 159 385 76 201 141 363 143 360 3 -3 68 -168 144 -367 75
-199 142 -366 147 -371 7 -7 14 0 21 19 6 16 76 198 156 405 79 206 144 379
144 382 0 4 -42 7 -94 7 l-93 0 -63 -170 c-34 -94 -65 -168 -69 -165 -3 4 -49
120 -101 258 l-96 252 -95 3 -96 3 -99 -261z"/>
<path d="M923 2205 c-59 -25 -86 -96 -59 -158 28 -67 118 -97 186 -62 33 17
37 27 16 44 -12 10 -20 9 -40 -4 -32 -21 -80 -12 -101 18 -21 31 -19 83 5 107
22 22 88 28 108 8 8 -8 15 -8 27 2 23 19 18 30 -20 46 -43 17 -80 17 -122 -1z"/>
<path d="M2056 2213 c-2 -2 14 -58 36 -124 38 -115 41 -119 68 -119 27 0 30 5
55 81 15 44 30 77 34 72 4 -4 17 -41 30 -80 21 -68 24 -73 51 -73 27 0 30 4
68 120 22 66 37 122 34 124 -4 2 -16 0 -27 -4 -15 -6 -28 -30 -45 -84 -13 -42
-27 -76 -30 -76 -4 0 -17 36 -30 80 -21 75 -24 80 -51 80 -25 0 -29 -6 -54
-80 -15 -44 -30 -78 -34 -75 -4 2 -18 38 -30 79 -19 62 -26 75 -46 78 -14 3
-26 3 -29 1z"/>
<path d="M3884 2211 c-2 -2 -4 -58 -4 -123 l0 -118 68 1 c123 1 174 36 174
121 0 85 -33 111 -150 118 -46 3 -86 3 -88 1z m163 -63 c29 -27 31 -80 4 -107
-20 -20 -93 -37 -111 -26 -5 3 -10 40 -10 81 l0 74 47 0 c34 0 53 -6 70 -22z"/>
<path d="M1200 2090 l0 -120 30 0 30 0 0 120 0 120 -30 0 -30 0 0 -120z"/>
<path d="M1400 2090 l0 -120 25 0 c24 0 25 2 25 76 l0 76 63 -76 c43 -53 69
-76 85 -76 22 0 22 2 22 120 l0 120 -25 0 c-23 0 -24 -3 -27 -72 l-3 -73 -60
73 c-42 51 -66 72 -82 72 -23 0 -23 -2 -23 -120z"/>
<path d="M1760 2090 l0 -120 90 0 c83 0 90 1 90 20 0 18 -7 20 -66 20 l-65 0
3 32 c3 32 3 32 56 29 50 -2 52 -1 52 23 0 25 -3 26 -55 26 -52 0 -55 1 -55
25 0 24 2 25 65 25 58 0 65 2 65 20 0 19 -7 20 -90 20 l-90 0 0 -120z"/>
<path d="M2560 2090 l0 -120 90 0 c83 0 90 1 90 20 0 18 -7 20 -66 20 l-65 0
3 32 c3 32 3 32 56 29 50 -2 52 -1 52 23 0 25 -3 26 -55 26 -52 0 -55 1 -55
25 0 24 2 25 65 25 58 0 65 2 65 20 0 19 -7 20 -90 20 l-90 0 0 -120z"/>
<path d="M2870 2090 l0 -120 95 0 c88 0 95 2 95 20 0 17 -8 19 -67 22 -66 3
-68 4 -71 31 -3 24 0 27 25 28 84 3 88 4 88 24 0 17 -8 20 -57 23 -54 3 -58 5
-58 27 0 24 3 25 65 25 58 0 65 2 65 20 0 19 -7 20 -90 20 l-90 0 0 -120z"/>
<path d="M3180 2090 l0 -120 30 0 c27 0 30 3 30 32 0 17 7 40 16 49 16 17 19
16 56 -31 32 -40 46 -50 69 -50 34 0 34 3 -21 70 -57 70 -57 67 -4 121 l48 49
-29 0 c-22 0 -43 -13 -82 -52 l-53 -52 0 52 c0 51 -1 52 -30 52 l-30 0 0 -120z"/>
<path d="M3520 2090 l0 -120 25 0 c23 0 24 3 27 76 l3 77 63 -77 c39 -47 71
-76 83 -76 18 0 19 8 19 120 l0 120 -25 0 c-23 0 -24 -3 -27 -71 l-3 -70 -58
70 c-43 54 -63 71 -82 71 l-25 0 0 -120z"/>
<path d="M1300 1740 c0 -7 407 -10 1200 -10 793 0 1200 3 1200 10 0 7 -407 10
-1200 10 -793 0 -1200 -3 -1200 -10z"/>
</g>
</svg>
